<mxfile host="app.diagrams.net" modified="2023-05-26T16:36:43.814Z" agent="Mozilla/5.0 (Windows NT 10.0; Win64; x64) AppleWebKit/537.36 (KHTML, like Gecko) Chrome/113.0.0.0 Safari/537.36" version="21.3.4" etag="iHVD0M4EQLmOBgT0ebje" type="github">
  <diagram name="페이지-1" id="CD3d-WJ4La68k-yKkgPb">
    <mxGraphModel>
      <root>
        <mxCell id="0" />
        <mxCell id="1" parent="0" />
      </root>
    </mxGraphModel>
  </diagram>
</mxfile>
